<?xml version="1.0" encoding="UTF-8"?>
<svg version="1.1" xmlns="http://www.w3.org/2000/svg" width="417" height="417">
<path d="M0 0 C137.61 0 275.22 0 417 0 C417 137.61 417 275.22 417 417 C279.39 417 141.78 417 0 417 C0 279.39 0 141.78 0 0 Z " fill="#FCFCFC" transform="translate(0,0)"/>
<path d="M0 0 C3.1689011 2.67620334 4.76745022 6.1013665 6.57421875 9.75 C6.90291458 10.40452148 7.23161041 11.05904297 7.57026672 11.73339844 C8.26146593 13.11376038 8.94965265 14.49563438 9.63500977 15.87890625 C10.68590192 17.99677938 11.74946515 20.10793647 12.81445312 22.21875 C13.48514508 23.5621158 14.15509267 24.90585355 14.82421875 26.25 C15.14291428 26.88131836 15.4616098 27.51263672 15.78996277 28.16308594 C17.17857641 30.98549603 18 32.80847413 18 36 C14.31698976 35.40044019 10.65690221 34.74134815 7 34 C5.98914564 36.39175361 4.99120797 38.78761585 4 41.1875 C3.71382812 41.86103516 3.42765625 42.53457031 3.1328125 43.22851562 C1.60793701 46.94993794 0.62389568 49.96471408 1 54 C0.34 54 -0.32 54 -1 54 C-0.67 55.65 -0.34 57.3 0 59 C0.99 58.67 1.98 58.34 3 58 C4.4037701 55.01868851 4.4037701 55.01868851 5.5625 51.5 C7.79460171 45.10269914 7.79460171 45.10269914 10 44 C18.82855135 63.37146121 27.60939201 82.76381015 36.33496094 102.18188477 C39.96412415 110.25754926 43.59856784 118.33067495 47.25390625 126.39453125 C47.5859053 127.12742371 47.91790436 127.86031616 48.25996399 128.61541748 C49.81706972 132.05270166 51.37583252 135.48921337 52.93774414 138.92431641 C53.4764917 140.11331543 54.01523926 141.30231445 54.5703125 142.52734375 C55.04227051 143.56624756 55.51422852 144.60515137 56.00048828 145.67553711 C57 148 57 148 57 149 C47.43 149 37.86 149 28 149 C27.08476562 146.91816406 26.16953125 144.83632813 25.2265625 142.69140625 C24.33781749 140.6818421 23.44685245 138.67327648 22.55566406 136.66479492 C21.93646994 135.26608543 21.31959682 133.86634609 20.70507812 132.46557617 C19.82246235 130.45477813 18.93162401 128.44780562 18.0390625 126.44140625 C17.62800766 125.49763878 17.62800766 125.49763878 17.20864868 124.5348053 C15.82860062 121.13096002 15.82860062 121.13096002 13 119 C12.67 119.66 12.34 120.32 12 121 C11.34 121 10.68 121 10 121 C10.66 122.98 11.32 124.96 12 127 C-2.19 127 -16.38 127 -31 127 C-29.33333333 123.66666667 -27.66666667 120.33333333 -26 117 C-27.03060547 117.74056641 -27.03060547 117.74056641 -28.08203125 118.49609375 C-28.98308594 119.13675781 -29.88414062 119.77742188 -30.8125 120.4375 C-31.70582031 121.07558594 -32.59914063 121.71367187 -33.51953125 122.37109375 C-36 124 -36 124 -39 125 C-39.98229612 126.12920844 -40.91298049 127.30380519 -41.8125 128.5 C-46.8463499 134.45493732 -53.36243595 138.07497676 -60 142 C-60.68835938 142.43441406 -61.37671875 142.86882812 -62.0859375 143.31640625 C-76.40501158 151.57741053 -95.6484014 152.11660806 -111.25 148 C-130.06628794 142.50462171 -144.37000565 129.30483018 -153.75 112.3125 C-161.09651557 96.54862082 -162.33169507 79.52825472 -157 63 C-155.02 58.71 -153.04 54.42 -151 50 C-140.11 50 -129.22 50 -118 50 C-119.98 52.31 -121.96 54.62 -124 57 C-131.60231158 66.60640678 -134.15036623 76.82529074 -133 89 C-131.18639933 100.03273739 -126.1535322 109.05555948 -117.5703125 116.2421875 C-107.97805179 122.80224422 -96.70460861 125.57476538 -85.2578125 123.50390625 C-77.01262491 121.43676998 -68.76164121 118.48184636 -63 112 C-62.34 112 -61.68 112 -61 112 C-60.505 110.515 -60.505 110.515 -60 109 C-59.34 109 -58.68 109 -58 109 C-57.60458008 108.14752686 -57.60458008 108.14752686 -57.20117188 107.27783203 C-55.91749259 104.84353778 -54.42031549 102.76444918 -52.78125 100.5546875 C-48.65922895 94.71870625 -45.56028177 88.56781642 -42.5 82.125 C-42.20951782 81.52003693 -41.91903564 80.91507385 -41.61975098 80.29177856 C-34.53758427 65.52084634 -28.30445317 50.37977947 -22.15606689 35.20124817 C-20.87672434 32.0572777 -19.52031925 29.0406385 -18 26 C-21.3 25.67 -24.6 25.34 -28 25 C-25.98540129 20.97080257 -24.7463636 19.7101345 -21.3125 17 C-20.343125 16.22785156 -19.37375 15.45570313 -18.375 14.66015625 C-17.84132813 14.24008301 -17.30765625 13.82000977 -16.7578125 13.38720703 C-14.80979468 11.8498963 -12.873 10.2991324 -10.9375 8.74609375 C-7.29646415 5.82468278 -3.64954619 2.91077166 0 0 Z " fill="#F37133" transform="translate(296,115)"/>
<path d="M0 0 C2.5242369 3.78635535 4.36524679 7.76842027 6.3125 11.875 C6.75271484 12.80207764 7.19292969 13.72915527 7.64648438 14.68432617 C12.63759692 25.26093793 17.3920345 35.94267414 22.15141296 46.62492371 C24.63752075 52.19967301 27.14492183 57.76469827 29.65625 63.328125 C30.25711426 64.65997078 30.25711426 64.65997078 30.87011719 66.01872253 C33.27001008 71.33822833 33.27001008 71.33822833 35.67285156 76.65640259 C36.79388263 79.13611735 37.91274365 81.61680185 39.03125 84.09765625 C39.35790649 84.81862488 39.68456299 85.53959351 40.02111816 86.28240967 C42.81017598 92.47657303 45.38349592 98.72039021 48 105 C38.43 105 28.86 105 19 105 C18.01902344 102.78410156 17.03804688 100.56820312 16.02734375 98.28515625 C15.02427009 96.0219712 14.0206342 93.7590364 13.01687622 91.49615479 C12.29821658 89.87580273 11.57985235 88.25531961 10.86178589 86.63470459 C6.83788543 77.5562644 2.78615263 68.49271616 -1.3671875 59.47265625 C-1.71263107 58.72071487 -2.05807465 57.9687735 -2.41398621 57.19404602 C-4.06349713 53.60443561 -5.72007556 50.01840872 -7.38891602 46.43774414 C-7.98744839 45.13832471 -8.58569028 43.83877143 -9.18359375 42.5390625 C-9.70493896 41.41709473 -10.22628418 40.29512695 -10.76342773 39.13916016 C-13.25597639 32.81158057 -13.18601843 29.39060638 -10.5078125 23.10546875 C-10.10971878 22.15623283 -10.10971878 22.15623283 -9.70358276 21.18782043 C-8.85787032 19.18152042 -7.9915758 17.18486328 -7.125 15.1875 C-6.54946867 13.82672628 -5.97523599 12.46540252 -5.40234375 11.10351562 C-1.21202954 1.21202954 -1.21202954 1.21202954 0 0 Z " fill="#1A293D" transform="translate(305,159)"/>
<path d="M0 0 C8.25 0 16.5 0 25 0 C25 32.67 25 65.34 25 99 C16.75 99 8.5 99 0 99 C0 66.33 0 33.66 0 0 Z " fill="#17273C" transform="translate(103,165)"/>
<path d="M0 0 C33.66 0 67.32 0 102 0 C98.60862709 2.71309833 95.30951132 5.17913696 91.75 7.625 C85.78592195 11.9243083 79.3477262 17.3045476 76 24 C50.92 24 25.84 24 0 24 C0 16.08 0 8.16 0 0 Z " fill="#17273B" transform="translate(66,135)"/>
<path d="M0 0 C1.010625 0.825 2.02125 1.65 3.0625 2.5 C1.93815085 3.62434915 0.81344737 4.7483451 -0.3125 5.87109375 C-1.5050939 7.06655446 -2.69175518 8.26794126 -3.875 9.47265625 C-7.40948022 13.05399511 -10.90137683 16.47290762 -14.9375 19.5 C-19.19091882 17.86813772 -23.1325568 15.86545085 -27.14453125 13.71875 C-35.12183118 10.23774639 -42.82072321 10.16673765 -51.40625 10.0859375 C-52.68230103 10.06657135 -53.95835205 10.0472052 -55.27307129 10.0272522 C-58.639839 9.97782281 -62.00650392 9.93646113 -65.37341309 9.89910889 C-68.81935157 9.85885974 -72.26512991 9.80786363 -75.7109375 9.7578125 C-82.45302145 9.6620425 -89.19517603 9.57691774 -95.9375 9.5 C-95.9375 8.84 -95.9375 8.18 -95.9375 7.5 C-95.2775 7.5 -94.6175 7.5 -93.9375 7.5 C-93.70546875 6.92894531 -93.4734375 6.35789063 -93.234375 5.76953125 C-87.37114672 -4.49111823 -72.41970611 -10.86297129 -61.8125 -14.4375 C-39.7404039 -19.63858303 -17.82822565 -13.22233959 0 0 Z " fill="#1C2C3F" transform="translate(245.9375,149.5)"/>
<path d="M0 0 C0.66 0.33 1.32 0.66 2 1 C2 1.66 2 2.32 2 3 C1.34 3 0.68 3 0 3 C0.495 5.475 0.495 5.475 1 8 C1.99 8.33 2.98 8.66 4 9 C3.33291016 10.41152344 3.33291016 10.41152344 2.65234375 11.8515625 C2.07992414 13.10900885 1.50835427 14.36684225 0.9375 15.625 C0.64294922 16.24246094 0.34839844 16.85992187 0.04492188 17.49609375 C-1.9179292 21.88364321 -2.09295768 24.3840659 -1 29 C-0.13580276 31.16057795 0.80415377 33.29175508 1.80078125 35.39453125 C2.07842819 35.98618576 2.35607513 36.57784027 2.64213562 37.18742371 C3.52533039 39.06581108 4.41853752 40.93921698 5.3125 42.8125 C5.90109459 44.05761017 6.48899114 45.30305057 7.07617188 46.54882812 C7.36281708 47.15669159 7.64946228 47.76455505 7.9447937 48.39083862 C9.29717487 51.26025501 10.64858754 54.13012728 12 57 C12.4439209 57.93118652 12.8878418 58.86237305 13.34521484 59.82177734 C13.71984863 60.62695801 14.09448242 61.43213867 14.48046875 62.26171875 C14.80297607 62.94580811 15.1254834 63.62989746 15.45776367 64.3347168 C16 66 16 66 15 68 C12.9375 69.125 12.9375 69.125 11 70 C11.66 71.98 12.32 73.96 13 76 C-1.19 76 -15.38 76 -30 76 C-27.5 71 -27.5 71 -25 66 C-28.3 68.31 -31.6 70.62 -35 73 C-35.66 72.67 -36.32 72.34 -37 72 C-36.53851563 71.48695313 -36.07703125 70.97390625 -35.6015625 70.4453125 C-26.68247815 59.97508305 -20.13585493 47.59846101 -15.12890625 34.828125 C-13.92252854 31.80591924 -12.57425554 28.88111976 -11.1875 25.9375 C-7.20104522 17.40253154 -3.61480782 8.69735465 0 0 Z " fill="#F6F7F7" transform="translate(295,166)"/>
<path d="M0 0 C15.18 0 30.36 0 46 0 C44.02 3.63 42.04 7.26 40 11 C39.42056641 12.28350342 38.84113281 13.56700684 38.24414062 14.8894043 C36.47775707 18.50174557 34.87435936 21.1703505 32 24 C26.40726683 25.58365659 21.24253726 25.24671951 15.5 24.8125 C13.99504216 24.7472009 12.4898114 24.6879006 10.984375 24.63476562 C7.31064774 24.50327208 3.67506118 24.24998963 0 24 C0 16.08 0 8.16 0 0 Z " fill="#18283A" transform="translate(201,197)"/>
<path d="M0 0 C1.8363725 3.9777711 3.66858862 7.9574426 5.5 11.9375 C6.02464844 13.07380859 6.54929687 14.21011719 7.08984375 15.38085938 C7.58613281 16.46044922 8.08242188 17.54003906 8.59375 18.65234375 C9.05458984 19.65257568 9.51542969 20.65280762 9.99023438 21.68334961 C11 24 11 24 11 25 C-3.19 25 -17.38 25 -32 25 C-29.91957778 20.83915556 -27.5853657 16.93337703 -25.07788086 13.0168457 C-23.48768312 10.51645277 -22.05213247 8.13189907 -20.9609375 5.37109375 C-17.48076889 -3.0872291 -7.6913889 -0.61056229 0 0 Z " fill="#1A293C" transform="translate(297,217)"/>
<path d="M0 0 C0.84046875 0.09796875 1.6809375 0.1959375 2.546875 0.296875 C2.876875 -0.033125 3.206875 -0.363125 3.546875 -0.703125 C5.7265625 -0.90625 5.7265625 -0.90625 8.421875 -0.953125 C9.30617187 -0.97890625 10.19046875 -1.0046875 11.1015625 -1.03125 C13.546875 -0.703125 13.546875 -0.703125 15.34765625 0.65234375 C17.02942078 2.95860717 16.90387436 4.51227995 16.546875 7.296875 C15.886875 7.956875 15.226875 8.616875 14.546875 9.296875 C14.81363704 11.28179142 14.81363704 11.28179142 15.546875 13.296875 C15.876875 14.286875 16.206875 15.276875 16.546875 16.296875 C14.671875 16.046875 14.671875 16.046875 12.546875 15.296875 C11.88020833 13.96354167 11.21354167 12.63020833 10.546875 11.296875 C8.49686629 10.49158611 8.49686629 10.49158611 6.546875 10.296875 C6.546875 12.606875 6.546875 14.916875 6.546875 17.296875 C3.906875 17.296875 1.266875 17.296875 -1.453125 17.296875 C-1.453125 17.956875 -1.453125 18.616875 -1.453125 19.296875 C-2.113125 19.296875 -2.773125 19.296875 -3.453125 19.296875 C-3.783125 18.636875 -4.113125 17.976875 -4.453125 17.296875 C-5.38125 17.173125 -6.309375 17.049375 -7.265625 16.921875 C-10.453125 16.296875 -10.453125 16.296875 -12.828125 14.734375 C-14.72121166 11.89474501 -15.10217376 9.67986187 -14.87890625 6.2734375 C-14.453125 4.296875 -14.453125 4.296875 -12.703125 1.234375 C-8.24378209 -1.42407942 -5.0242664 -0.71074988 0 0 Z " fill="#EAEFF3" transform="translate(177.453125,284.703125)"/>
<path d="M0 0 C0.33 1.98 0.66 3.96 1 6 C1.66 6 2.32 6 3 6 C3.99 3.69 4.98 1.38 6 -1 C7.828125 -0.8984375 7.828125 -0.8984375 10 0 C11.484375 2.8359375 11.484375 2.8359375 12.75 6.375 C13.17796875 7.53773438 13.6059375 8.70046875 14.046875 9.8984375 C15 13 15 13 15 16 C14.01 15.67 13.02 15.34 12 15 C12 14.01 12 13.02 12 12 C9.36 12.33 6.72 12.66 4 13 C3.67 14.32 3.34 15.64 3 17 C0.69 17.33 -1.62 17.66 -4 18 C-4 17.34 -4 16.68 -4 16 C-5.051875 16.268125 -6.10375 16.53625 -7.1875 16.8125 C-11 17 -11 17 -13.9375 15.125 C-16.33032855 11.4995022 -16.74037949 9.3604915 -16.484375 5.09375 C-16 3 -16 3 -13.875 0.4375 C-9.10980327 -1.94509837 -5.04705654 -1.18754272 0 0 Z " fill="#EEF3F5" transform="translate(272,285)"/>
<path d="M0 0 C14.4626195 -1.22362938 14.4626195 -1.22362938 18.10546875 1.67578125 C19.33937605 3.75254214 20.19218344 5.72855882 21 8 C21.99 9.485 21.99 9.485 23 11 C24.65 7.7 26.3 4.4 28 1 C28.99 1 29.98 1 31 1 C31 6.28 31 11.56 31 17 C30.34 17 29.68 17 29 17 C28.67 14.03 28.34 11.06 28 8 C26.68 10.97 25.36 13.94 24 17 C21 16 21 16 19.83203125 13.93359375 C18.88802083 11.62239583 17.94401042 9.31119792 17 7 C16.67 10.63 16.34 14.26 16 18 C13.52076199 18.02685095 11.0418116 18.04676547 8.5625 18.0625 C7.85544922 18.07087891 7.14839844 18.07925781 6.41992188 18.08789062 C4.61306441 18.09653588 2.80612397 18.05220011 1 18 C0 17 0 17 -0.09765625 13.18359375 C-0.09098089 11.60153318 -0.07901875 10.01948841 -0.0625 8.4375 C-0.05798828 7.63119141 -0.05347656 6.82488281 -0.04882812 5.99414062 C-0.03700518 3.99606244 -0.01906914 1.99802217 0 0 Z " fill="#CED4DA" transform="translate(305,284)"/>
<path d="M0 0 C5.61 0 11.22 0 17 0 C16.67 1.32 16.34 2.64 16 4 C17.32 2.68 18.64 1.36 20 0 C20.99 0.33 21.98 0.66 23 1 C24.20057976 3.69035026 25.22808495 6.28848759 26.1875 9.0625 C26.46013672 9.82111328 26.73277344 10.57972656 27.01367188 11.36132812 C27.68615396 13.2371992 28.34442951 15.11815203 29 17 C28.01 17 27.02 17 26 17 C25.67 15.68 25.34 14.36 25 13 C22.36 13.33 19.72 13.66 17 14 C16.67 15.65 16.34 17.3 16 19 C11.46625958 20.03039555 10.35532149 20.17766075 6 18 C6 13.05 6 8.1 6 3 C4.02 3 2.04 3 0 3 C0 2.01 0 1.02 0 0 Z " fill="#F2F4F5" transform="translate(77,284)"/>
<path d="M0 0 C2.86972996 1.99633389 4.65210765 3.47229883 5.44921875 6.97265625 C5.63167186 10.33860155 5.25737768 12.59849083 3.4375 15.4375 C0.16434238 17.53567796 -2.11417724 18 -6 18 C-8.80189446 16.23358828 -10.51524911 14.96950178 -12 12 C-12.43023798 8.12785818 -12.31669086 6.47503629 -10.125 3.1875 C-6.84028418 -0.19382511 -4.67056491 -0.54947822 0 0 Z " fill="#353D4B" transform="translate(207,284)"/>
<path d="M0 0 C9.19230769 0 9.19230769 0 13 3 C14.60682055 6.2136411 14.46150508 9.51460341 14 13 C12.625 15.5 12.625 15.5 10 17 C6.59261423 17.3204438 3.43812659 17.18095403 0 17 C0 11.39 0 5.78 0 0 Z " fill="#192634" transform="translate(289,284)"/>
<path d="M0 0 C1.588125 -0.061875 3.17625 -0.12375 4.8125 -0.1875 C6.15248047 -0.23970703 6.15248047 -0.23970703 7.51953125 -0.29296875 C10 0 10 0 11.8046875 1.3515625 C13.47948435 3.66124965 13.35691675 5.21604938 13 8 C12.34 8.66 11.68 9.32 11 10 C11.26676204 11.98491642 11.26676204 11.98491642 12 14 C12.33 14.99 12.66 15.98 13 17 C11.125 16.75 11.125 16.75 9 16 C8.33333333 14.66666667 7.66666667 13.33333333 7 12 C4.94999129 11.19471111 4.94999129 11.19471111 3 11 C3 12.98 3 14.96 3 17 C2.01 17 1.02 17 0 17 C0 11.39 0 5.78 0 0 Z " fill="#565E6B" transform="translate(181,284)"/>
<path d="M0 0 C0.99 0 1.98 0 3 0 C3.99 3.3 4.98 6.6 6 10 C6.99 6.7 7.98 3.4 9 0 C9.99 0 10.98 0 12 0 C12.99 3.3 13.98 6.6 15 10 C16.32 6.7 17.64 3.4 19 0 C19.66 0 20.32 0 21 0 C20.71561048 1.89693861 20.42216208 3.79252027 20.125 5.6875 C19.96257812 6.74324219 19.80015625 7.79898437 19.6328125 8.88671875 C19.04106931 11.79794914 18.1968194 14.28955607 17 17 C16.01 17 15.02 17 14 17 C13.01 13.7 12.02 10.4 11 7 C9.68 10.3 8.36 13.6 7 17 C5.68 16.67 4.36 16.34 3 16 C2.01 10.72 1.02 5.44 0 0 Z " fill="#3B4554" transform="translate(213,284)"/>
<path d="M0 0 C2.375 1.3125 2.375 1.3125 4 3 C4 3.99 4 4.98 4 6 C3.46375 5.67 2.9275 5.34 2.375 5 C-0.5929092 3.75035402 -2.80799279 3.72243416 -6 4 C-6.66 4.66 -7.32 5.32 -8 6 C-7.67673447 9.59679066 -7.67673447 9.59679066 -7 13 C-4.69 13.33 -2.38 13.66 0 14 C0.66 13.01 1.32 12.02 2 11 C0.35 11 -1.3 11 -3 11 C-3 10.01 -3 9.02 -3 8 C-0.36 8 2.28 8 5 8 C5 10.97 5 13.94 5 17 C3.68 17 2.36 17 1 17 C0.01 17.20625 -0.98 17.4125 -2 17.625 C-5.25328252 18.03166031 -6.37232008 17.87691423 -9 16 C-11.45700792 12.31448812 -11.80737582 9.27825949 -11 5 C-7.83880134 0.53713131 -5.45291454 -0.92815567 0 0 Z " fill="#414955" transform="translate(174,284)"/>
<path d="M0 0 C3 1 3 1 4.38671875 3.28515625 C4.81597656 4.20167969 5.24523437 5.11820312 5.6875 6.0625 C6.34298828 7.44115234 6.34298828 7.44115234 7.01171875 8.84765625 C7.33785156 9.55792969 7.66398437 10.26820313 8 11 C10.46446554 7.82449818 12.26637814 4.63235056 14 1 C14.99 1 15.98 1 17 1 C17 6.28 17 11.56 17 17 C16.34 17 15.68 17 15 17 C14.67 14.03 14.34 11.06 14 8 C12.68 10.97 11.36 13.94 10 17 C7 16 7 16 5.83203125 13.93359375 C4.88802083 11.62239583 3.94401042 9.31119792 3 7 C2.67 10.3 2.34 13.6 2 17 C1.34 17 0.68 17 0 17 C0 11.39 0 5.78 0 0 Z " fill="#434854" transform="translate(319,284)"/>
<path d="M0 0 C5.13233264 2.56616632 6.70716291 5.36009319 10 10 C10.33 6.7 10.66 3.4 11 0 C11.99 0 12.98 0 14 0 C14 5.61 14 11.22 14 17 C10.13209997 15.06604999 9.12365764 14.2196994 6.75 10.875 C5.38875 8.956875 5.38875 8.956875 4 7 C3.67 10.3 3.34 13.6 3 17 C2.01 17 1.02 17 0 17 C0 11.39 0 5.78 0 0 Z " fill="#3E4651" transform="translate(133,284)"/>
<path d="M0 0 C0.99 0 1.98 0 3 0 C4.0067004 2.26807204 5.00551766 4.53907754 6 6.8125 C6.28617188 7.45509766 6.57234375 8.09769531 6.8671875 8.75976562 C8.13711041 11.67756469 9 13.78265714 9 17 C8.01 16.67 7.02 16.34 6 16 C5.67 15.34 5.34 14.68 5 14 C1.58357241 13.74984127 1.58357241 13.74984127 -2 14 C-2.99 15.485 -2.99 15.485 -4 17 C-4.66 17 -5.32 17 -6 17 C-5.34496718 12.94180817 -4.05440879 9.46028718 -2.4375 5.6875 C-1.75494141 4.08455078 -1.75494141 4.08455078 -1.05859375 2.44921875 C-0.53458984 1.23685547 -0.53458984 1.23685547 0 0 Z " fill="#353B46" transform="translate(246,284)"/>
<path d="M0 0 C0.99 0.33 1.98 0.66 3 1 C4.20057976 3.69035026 5.22808495 6.28848759 6.1875 9.0625 C6.46013672 9.82111328 6.73277344 10.57972656 7.01367188 11.36132812 C7.68615396 13.2371992 8.34442951 15.11815203 9 17 C8.01 17 7.02 17 6 17 C5.67 15.68 5.34 14.36 5 13 C2.36 13.33 -0.28 13.66 -3 14 C-3.33 14.99 -3.66 15.98 -4 17 C-4.99 17 -5.98 17 -7 17 C-5.1668733 11.00067626 -2.92678249 5.55079437 0 0 Z " fill="#394551" transform="translate(97,284)"/>
<path d="M0 0 C1.828125 0.1015625 1.828125 0.1015625 4 1 C5.484375 3.8359375 5.484375 3.8359375 6.75 7.375 C7.17796875 8.53773438 7.6059375 9.70046875 8.046875 10.8984375 C9 14 9 14 9 17 C8.01 16.67 7.02 16.34 6 16 C6 15.01 6 14.02 6 13 C4.72125 13.103125 3.4425 13.20625 2.125 13.3125 C1.40570313 13.37050781 0.68640625 13.42851562 -0.0546875 13.48828125 C-2.39519216 13.87393036 -2.39519216 13.87393036 -4 17 C-4.66 17 -5.32 17 -6 17 C-4.33846988 11.14340094 -2.52958084 5.5409866 0 0 Z " fill="#2C303D" transform="translate(278,284)"/>
<path d="M0 0 C1.9375 1.625 1.9375 1.625 3 4 C2.875 7.125 2.875 7.125 2 10 C-1.23253796 12.15502531 -2.25150923 12.46856135 -6 12 C-7.8125 10.875 -7.8125 10.875 -9 9 C-9.39365568 5.85075452 -9.52854531 3.88090884 -7.875 1.125 C-5.08893958 -0.54663625 -3.18011138 -0.46376624 0 0 Z " fill="#F0F4F6" transform="translate(207,287)"/>
<path d="M0 0 C3.63 0 7.26 0 11 0 C11 0.99 11 1.98 11 3 C8.36 3 5.72 3 3 3 C3 4.32 3 5.64 3 7 C4.98 7 6.96 7 9 7 C9 7.99 9 8.98 9 10 C7.02 10 5.04 10 3 10 C3 11.65 3 13.3 3 15 C5.64 15 8.28 15 11 15 C11 15.66 11 16.32 11 17 C7.37 17 3.74 17 0 17 C0 11.39 0 5.78 0 0 Z " fill="#58606E" transform="translate(120,284)"/>
<path d="M0 0 C2.375 1.25 2.375 1.25 4 3 C4 4.32 4 5.64 4 7 C3.34 7 2.68 7 2 7 C1.34 6.01 0.68 5.02 0 4 C-3 3.58333333 -3 3.58333333 -6 4 C-8.31563087 5.88500271 -8.31563087 5.88500271 -8.25 9 C-8.31563087 12.11499729 -8.31563087 12.11499729 -6 14 C-3 14.41666667 -3 14.41666667 0 14 C0.66 13.01 1.32 12.02 2 11 C2.99 11 3.98 11 5 11 C4.14382686 13.71121495 3.54750525 15.55388461 1.3125 17.375 C-2.10402609 18.29838543 -4.59379183 17.86703481 -8 17 C-10.36958236 15.16548462 -10.86941344 13.79819203 -11.34765625 10.875 C-11.61368326 6.72770716 -11.5891231 4.71041315 -8.875 1.4375 C-5.53248818 -0.23375591 -3.68818005 -0.54930341 0 0 Z " fill="#323B43" transform="translate(267,284)"/>
<path d="M0 0 C0.495 1.485 0.495 1.485 1 3 C0.67 3.66 0.34 4.32 0 5 C1.32 5.66 2.64 6.32 4 7 C3.23286356 8.10673834 2.46110997 9.21027694 1.6875 10.3125 C1.25824219 10.92738281 0.82898438 11.54226562 0.38671875 12.17578125 C-0.97259928 13.96395454 -2.30606501 15.52405129 -4 17 C-4.66 17 -5.32 17 -6 17 C-6.33 15.35 -6.66 13.7 -7 12 C-17.23 12 -27.46 12 -38 12 C-38 11.67 -38 11.34 -38 11 C-36.59306885 11.03311279 -36.59306885 11.03311279 -35.15771484 11.06689453 C-31.65585618 11.12538159 -28.15971552 11.13871408 -24.65771484 11.12207031 C-23.14651792 11.12400982 -21.63523149 11.1436186 -20.12451172 11.18164062 C-15.24100228 11.29753142 -10.74435765 11.24739887 -6 10 C-2.94836203 7.02657681 -1.37450699 4.00692927 0 0 Z " fill="#D9DADC" transform="translate(239,210)"/>
<path d="M0 0 C0.66 0.33 1.32 0.66 2 1 C2 1.66 2 2.32 2 3 C1.34 3 0.68 3 0 3 C0.33 4.65 0.66 6.3 1 8 C1.99 8.33 2.98 8.66 4 9 C2.35 12.96 0.7 16.92 -1 21 C-1.66 20.01 -2.32 19.02 -3 18 C-3.99 18.33 -4.98 18.66 -6 19 C-6 20.32 -6 21.64 -6 23 C-6.99 23.33 -7.98 23.66 -9 24 C-6.80148049 15.63019764 -3.50929804 7.88172441 0 0 Z " fill="#F0F0EE" transform="translate(295,166)"/>
<path d="M0 0 C6 0 6 0 7.875 1.125 C9.54663625 3.91106042 9.46376624 5.81988862 9 9 C7.3125 10.875 7.3125 10.875 5 12 C3.35 12 1.7 12 0 12 C0 8.04 0 4.08 0 0 Z " fill="#F0F2F6" transform="translate(292,287)"/>
<path d="M0 0 C4.95 0 9.9 0 15 0 C15 0.99 15 1.98 15 3 C13.02 3 11.04 3 9 3 C9 7.95 9 12.9 9 18 C8.01 18 7.02 18 6 18 C6 13.05 6 8.1 6 3 C4.02 3 2.04 3 0 3 C0 2.01 0 1.02 0 0 Z " fill="#4B555F" transform="translate(148,284)"/>
<path d="M0 0 C4.95 0 9.9 0 15 0 C15 0.99 15 1.98 15 3 C13.02 3 11.04 3 9 3 C9 7.62 9 12.24 9 17 C8.01 17 7.02 17 6 17 C6 12.38 6 7.76 6 3 C4.02 3 2.04 3 0 3 C0 2.01 0 1.02 0 0 Z " fill="#494E58" transform="translate(77,284)"/>
<path d="M0 0 C5 6.36363636 5 6.36363636 5 11 C1.31352622 10.39987636 -2.33560916 9.73287817 -6 9 C-10.455 19.89 -10.455 19.89 -15 31 C-16.23788062 26.04847754 -15.07051961 24.53921606 -13 20 C-12.30859478 17.22111387 -12.30859478 17.22111387 -12 15 C-11.34 15 -10.68 15 -10 15 C-10 13.68 -10 12.36 -10 11 C-9.34 11 -8.68 11 -8 11 C-7.67 9.68 -7.34 8.36 -7 7 C-5.02 6.67 -3.04 6.34 -1 6 C-0.67 4.02 -0.34 2.04 0 0 Z " fill="#E6804D" transform="translate(309,140)"/>
<path d="M0 0 C3.63 0 7.26 0 11 0 C11 0.66 11 1.32 11 2 C8.03 2 5.06 2 2 2 C2 3.65 2 5.3 2 7 C3.98 7 5.96 7 8 7 C8 7.66 8 8.32 8 9 C6.02 9 4.04 9 2 9 C2 10.65 2 12.3 2 14 C4.97 14 7.94 14 11 14 C11 14.66 11 15.32 11 16 C7.37 16 3.74 16 0 16 C0 10.72 0 5.44 0 0 Z " fill="#2D3643" transform="translate(306,285)"/>
<path d="M0 0 C0.99 0 1.98 0 3 0 C2.00790606 2.67102214 1.00824802 4.98746301 -0.5625 7.375 C-2.31405116 10.57348473 -2.64675078 13.39685799 -3 17 C-3.99 17 -4.98 17 -6 17 C-6.0825 15.845 -6.165 14.69 -6.25 13.5 C-6.81486683 8.77872502 -8.66168853 5.0893261 -11 1 C-10.01 1 -9.02 1 -8 1 C-6.96986723 2.64821244 -5.96885372 4.31503702 -5 6 C-4.34 6 -3.68 6 -3 6 C-2.01 4.02 -1.02 2.04 0 0 Z " fill="#384552" transform="translate(349,284)"/>
<path d="M0 0 C1.34191406 0.433125 1.34191406 0.433125 2.7109375 0.875 C13.50683243 4.18973107 21.53376719 5.09381121 32.45703125 1.75390625 C34.95679881 1.01280773 37.43755626 0.47384507 40 0 C40 0.66 40 1.32 40 2 C38.68 2 37.36 2 36 2 C36 2.66 36 3.32 36 4 C30.50825443 6.28974774 25.47289788 6.33309119 19.625 6.3125 C18.7175 6.32861328 17.81 6.34472656 16.875 6.36132812 C10.91592216 6.36562141 6.37872761 5.63990424 1 3 C0.67 2.01 0.34 1.02 0 0 Z " fill="#E27E4D" transform="translate(184,235)"/>
<path d="M0 0 C0.99 0 1.98 0 3 0 C3 4.95 3 9.9 3 15 C5.64 15 8.28 15 11 15 C11 15.66 11 16.32 11 17 C7.37 17 3.74 17 0 17 C0 11.39 0 5.78 0 0 Z " fill="#383F4B" transform="translate(107,284)"/>
<path d="M0 0 C3.96 0.33 7.92 0.66 12 1 C12 1.66 12 2.32 12 3 C19.92 3 27.84 3 36 3 C36 3.33 36 3.66 36 4 C23.74610704 6.9380679 11.69045728 5.1500197 0 1 C0 0.67 0 0.34 0 0 Z " fill="#E28154" transform="translate(180,260)"/>
<path d="M0 0 C0.99 0.33 1.98 0.66 3 1 C3.94921875 3.06640625 3.94921875 3.06640625 4.6875 5.5625 C5.06455078 6.80193359 5.06455078 6.80193359 5.44921875 8.06640625 C5.63097656 8.70449219 5.81273438 9.34257812 6 10 C5.01 10 4.02 10 3 10 C2.67 8.68 2.34 7.36 2 6 C-0.64 6.33 -3.28 6.66 -6 7 C-6.33 7.99 -6.66 8.98 -7 10 C-7.99 10 -8.98 10 -10 10 C-9.1875 6.5625 -9.1875 6.5625 -8 3 C-7.01 2.67 -6.02 2.34 -5 2 C-5 2.66 -5 3.32 -5 4 C-3.35 3.67 -1.7 3.34 0 3 C0 2.01 0 1.02 0 0 Z " fill="#2E3540" transform="translate(100,291)"/>
<path d="M0 0 C1.4540625 0.41572266 1.4540625 0.41572266 2.9375 0.83984375 C12.67398465 3.50905106 21.91739504 4.73184561 32 5 C31.67 5.66 31.34 6.32 31 7 C28.05078125 7.51953125 28.05078125 7.51953125 24.3125 7.8125 C22.48138672 7.97685547 22.48138672 7.97685547 20.61328125 8.14453125 C16.59166726 7.98366669 14.47166923 6.94858315 11 5 C8.82890782 4.35804639 8.82890782 4.35804639 6.8125 4 C3.12781191 3.03352444 2.34509232 2.67180797 0 0 Z " fill="#FDEADA" transform="translate(178,260)"/>
<path d="M0 0 C0.33 0.66 0.66 1.32 1 2 C0.67 2.99 0.34 3.98 0 5 C0.66 5 1.32 5 2 5 C2 6.65 2 8.3 2 10 C1.41734375 10.11214844 0.8346875 10.22429687 0.234375 10.33984375 C-2.20310657 11.06000876 -3.7250586 12.04379395 -5.75 13.5625 C-6.36359375 14.01753906 -6.9771875 14.47257813 -7.609375 14.94140625 C-8.06828125 15.29074219 -8.5271875 15.64007813 -9 16 C-9.66 15.67 -10.32 15.34 -11 15 C-10.18595703 14.00419922 -10.18595703 14.00419922 -9.35546875 12.98828125 C-8.64003906 12.10527344 -7.92460937 11.22226563 -7.1875 10.3125 C-6.47980469 9.44238281 -5.77210938 8.57226562 -5.04296875 7.67578125 C-3.15270354 5.20000368 -1.54332599 2.70203762 0 0 Z " fill="#FDEFDE" transform="translate(269,223)"/>
<path d="M0 0 C0.99 0 1.98 0 3 0 C6 5.75 6 5.75 6 8 C5.34 8 4.68 8 4 8 C4 8.99 4 9.98 4 11 C2.35 11 0.7 11 -1 11 C-0.979375 10.21625 -0.95875 9.4325 -0.9375 8.625 C-0.81315937 6.01885039 -0.81315937 6.01885039 -2 4 C-1.0625 1.875 -1.0625 1.875 0 0 Z " fill="#454B54" transform="translate(246,284)"/>
<path d="M0 0 C3.20252983 0.54511146 4.69197237 1.16810592 6.9375 3.5 C6.9375 4.49 6.9375 5.48 6.9375 6.5 C6.40125 6.17 5.865 5.84 5.3125 5.5 C2.3445908 4.25035402 0.12950721 4.22243416 -3.0625 4.5 C-5.42203094 6.85953094 -5.55391413 8.27895617 -6.0625 11.5 C-6.7225 11.5 -7.3825 11.5 -8.0625 11.5 C-8.52957789 7.48313013 -8.38400834 5.93498188 -5.9375 2.625 C-3.0625 0.5 -3.0625 0.5 0 0 Z " fill="#3B4450" transform="translate(171.0625,283.5)"/>
<path d="M0 0 C8.78723404 -0.44680851 8.78723404 -0.44680851 13 3 C13.33 3.99 13.66 4.98 14 6 C10.30099992 5.11223998 6.65449539 4.05418136 3 3 C3 6.96 3 10.92 3 15 C2.67 15 2.34 15 2 15 C1.93941406 14.16855469 1.87882812 13.33710938 1.81640625 12.48046875 C1.73261719 11.39378906 1.64882813 10.30710937 1.5625 9.1875 C1.48128906 8.10855469 1.40007812 7.02960938 1.31640625 5.91796875 C1.09787539 2.94010095 1.09787539 2.94010095 0 0 Z " fill="#505767" transform="translate(289,284)"/>
<path d="M0 0 C-0.495 0.53625 -0.99 1.0725 -1.5 1.625 C-3.40263813 4.63751037 -3.29852689 6.492309 -3 10 C-2.67 10.99 -2.34 11.98 -2 13 C-3.32 13.33 -4.64 13.66 -6 14 C-8 11 -8 11 -7.6875 8.875 C-7 7 -7 7 -6 6 C-5.80850919 2.36805359 -5.80850919 2.36805359 -7 -1 C-3.51418144 -2.2020064 -3.32007656 -2.21338437 0 0 Z " fill="#E5EFF4" transform="translate(199,286)"/>
<path d="M0 0 C1.98 0 3.96 0 6 0 C6.50512244 1.60256108 7.00391627 3.20711792 7.5 4.8125 C7.7784375 5.70582031 8.056875 6.59914063 8.34375 7.51953125 C9 10 9 10 9 13 C7.02 13.66 5.04 14.32 3 15 C3.33 14.34 3.66 13.68 4 13 C4.54917877 7.12546807 4.54917877 7.12546807 2 2 C1.34 1.34 0.68 0.68 0 0 Z " fill="#E1E6EE" transform="translate(207,284)"/>
<path d="M0 0 C0.33 0.99 0.66 1.98 1 3 C2.98 3 4.96 3 7 3 C7 3.33 7 3.66 7 4 C5.02 4 3.04 4 1 4 C1 5.98 1 7.96 1 10 C3.97 10 6.94 10 10 10 C10 10.66 10 11.32 10 12 C6.37 12 2.74 12 -1 12 C-1.09765625 3.50390625 -1.09765625 3.50390625 -1 1 C-0.67 0.67 -0.34 0.34 0 0 Z " fill="#1C2839" transform="translate(121,289)"/>
<path d="M0 0 C1.0625 1.8125 1.0625 1.8125 2 4 C1.67 4.99 1.34 5.98 1 7 C-0.32 6.67 -1.64 6.34 -3 6 C-3 6.66 -3 7.32 -3 8 C-3.5775 8.2475 -4.155 8.495 -4.75 8.75 C-7.14236467 9.92330271 -7.14236467 9.92330271 -9 12.1875 C-9.99 13.0846875 -9.99 13.0846875 -11 14 C-13.125 13.61328125 -13.125 13.61328125 -15 13 C-13.73299277 12.0158875 -12.4612381 11.03788503 -11.1875 10.0625 C-10.47980469 9.51722656 -9.77210938 8.97195312 -9.04296875 8.41015625 C-7 7 -7 7 -4 6 C-3.67 5.01 -3.34 4.02 -3 3 C-2.34 3 -1.68 3 -1 3 C-0.67 2.01 -0.34 1.02 0 0 Z " fill="#E78150" transform="translate(239,221)"/>
<path d="M0 0 C10.89 0 21.78 0 33 0 C31.35 1.65 29.7 3.3 28 5 C27.67 4.01 27.34 3.02 27 2 C18.09 2 9.18 2 0 2 C0 1.34 0 0.68 0 0 Z " fill="#D77F4E" transform="translate(145,165)"/>
<path d="M0 0 C0.99 0 1.98 0 3 0 C2.14382686 2.71121495 1.54750525 4.55388461 -0.6875 6.375 C-4.09836646 7.2968558 -6.60597215 6.87993315 -10 6 C-10.66 4.68 -11.32 3.36 -12 2 C-8.7 2.33 -5.4 2.66 -2 3 C-1.34 2.01 -0.68 1.02 0 0 Z " fill="#414650" transform="translate(269,295)"/>
<path d="M0 0 C1.99097846 2.98646769 2.94124926 5.59687262 4 9 C1.29120665 10.35439668 -1.00933268 10.06501451 -4 10 C-3.34 7.36 -2.68 4.72 -2 2 C-1.34 2 -0.68 2 0 2 C0 1.34 0 0.68 0 0 Z " fill="#444957" transform="translate(281,285)"/>
<path d="M0 0 C2 3.75 2 3.75 2 6 C2.66 6.33 3.32 6.66 4 7 C3.01 9.97 2.02 12.94 1 16 C1.99 15.67 2.98 15.34 4 15 C4 15.66 4 16.32 4 17 C1.69 17.33 -0.62 17.66 -3 18 C-3 17.01 -3 16.02 -3 15 C-2.34 15 -1.68 15 -1 15 C-0.34 12.36 0.32 9.72 1 7 C0.01 6.67 -0.98 6.34 -2 6 C-1.34 6 -0.68 6 0 6 C-0.2784375 4.7934375 -0.2784375 4.7934375 -0.5625 3.5625 C-0.706875 2.716875 -0.85125 1.87125 -1 1 C-0.67 0.67 -0.34 0.34 0 0 Z " fill="#DCE2E4" transform="translate(271,285)"/>
<path d="M0 0 C0.99 0.33 1.98 0.66 3 1 C3.33 2.98 3.66 4.96 4 7 C3.67 7 3.34 7 3 7 C2.67 10.3 2.34 13.6 2 17 C1.34 17 0.68 17 0 17 C0 11.39 0 5.78 0 0 Z " fill="#212937" transform="translate(319,284)"/>
<path d="M0 0 C0.33 0 0.66 0 1 0 C0.53199289 4.05606165 0.12046792 7.46588679 -2 11 C-2.66 11 -3.32 11 -4 11 C-3.7525 11.5775 -3.505 12.155 -3.25 12.75 C-3.1675 13.4925 -3.085 14.235 -3 15 C-4.9375 17.25 -4.9375 17.25 -7 19 C-7.66 18.67 -8.32 18.34 -9 18 C-6 12 -3 6 0 0 Z " fill="#FDEAD8" transform="translate(279,203)"/>
<path d="M0 0 C2.31 0 4.62 0 7 0 C7 0.33 7 0.66 7 1 C5.35 1 3.7 1 2 1 C2 3.31 2 5.62 2 8 C3.32 8.33 4.64 8.66 6 9 C4.68 9 3.36 9 2 9 C2 11.31 2 13.62 2 16 C1.34 16 0.68 16 0 16 C0 10.72 0 5.44 0 0 Z " fill="#212A39" transform="translate(182,285)"/>
<path d="M0 0 C0.56203125 0.32742188 1.1240625 0.65484375 1.703125 0.9921875 C4.26859964 2.11785494 5.96842277 2.2068111 8.75 2.125 C9.94882813 2.09792969 9.94882813 2.09792969 11.171875 2.0703125 C12.07679688 2.03550781 12.07679688 2.03550781 13 2 C13 2.66 13 3.32 13 4 C10.24832603 5.8711383 8.83822099 5.99432354 5.4375 5.875 C2 5 2 5 0.0625 2.9375 C-0.4634375 1.9784375 -0.4634375 1.9784375 -1 1 C-0.67 0.67 -0.34 0.34 0 0 Z " fill="#3A434E" transform="translate(197,296)"/>
<path d="M0 0 C1.60725635 3.21451269 1.05748185 6.43612536 1 10 C-0.32 10.33 -1.64 10.66 -3 11 C-2.79375 9.906875 -2.5875 8.81375 -2.375 7.6875 C-1.59653475 3.9161599 -1.59653475 3.9161599 -4 1 C-6.56282742 0.27034634 -6.56282742 0.27034634 -9 0 C-9 -0.33 -9 -0.66 -9 -1 C-5.25616401 -2.03995444 -3.27217674 -2.22040564 0 0 Z " fill="#333B48" transform="translate(211,287)"/>
<path d="M0 0 C0.66 0 1.32 0 2 0 C2 5.28 2 10.56 2 16 C0.68 15.34 -0.64 14.68 -2 14 C-1.67 13.01 -1.34 12.02 -1 11 C-0.77820215 9.10787263 -0.59385985 7.21115528 -0.4375 5.3125 C-0.35371094 4.31863281 -0.26992187 3.32476562 -0.18359375 2.30078125 C-0.12300781 1.54152344 -0.06242188 0.78226562 0 0 Z " fill="#212A37" transform="translate(145,285)"/>
<path d="M0 0 C0.99 0 1.98 0 3 0 C3 5.28 3 10.56 3 16 C2.34 16 1.68 16 1 16 C0.67 10.72 0.34 5.44 0 0 Z " fill="#1D2838" transform="translate(333,285)"/>
<path d="M0 0 C1.98 0 3.96 0 6 0 C5.51855059 4.81449408 5.1991413 7.60171741 3 12 C2.01 8.04 1.02 4.08 0 0 Z " fill="#E1EAEF" transform="translate(225,285)"/>
<path d="M0 0 C1.32 0.33 2.64 0.66 4 1 C1.92426919 2.20284401 -0.15883095 3.38705701 -2.25 4.5625 C-3.12978516 5.07586914 -3.12978516 5.07586914 -4.02734375 5.59960938 C-8.45794859 8.06382218 -8.45794859 8.06382218 -11.421875 7.71484375 C-11.94265625 7.47894531 -12.4634375 7.24304688 -13 7 C-8.375 4 -8.375 4 -5 4 C-5 3.34 -5 2.68 -5 2 C-3.35 2 -1.7 2 0 2 C0 1.34 0 0.68 0 0 Z " fill="#E17E4E" transform="translate(237,253)"/>
<path d="M0 0 C0.99 0.33 1.98 0.66 3 1 C1.38050958 2.50594681 -0.24575974 4.00460668 -1.875 5.5 C-3.23238281 6.75296875 -3.23238281 6.75296875 -4.6171875 8.03125 C-7 10 -7 10 -9 10 C-9 8.68 -9 7.36 -9 6 C-7.02 5.34 -5.04 4.68 -3 4 C-3 3.34 -3 2.68 -3 2 C-2.01 1.34 -1.02 0.68 0 0 Z " fill="#E38550" transform="translate(253,241)"/>
<path d="M0 0 C1.65 0 3.3 0 5 0 C0.85989729 4.54075781 -3.82390176 7.71842138 -9 11 C-9 10.01 -9 9.02 -9 8 C-7.36368108 6.95107762 -5.69514137 5.95093297 -4 5 C-3.67 4.34 -3.34 3.68 -3 3 C-2.34 3 -1.68 3 -1 3 C-0.67 2.01 -0.34 1.02 0 0 Z " fill="#FDECDB" transform="translate(289,117)"/>
<path d="M0 0 C1.98 0 3.96 0 6 0 C6.5625 1.9375 6.5625 1.9375 7 4 C6 5 6 5 2.9375 5.0625 C1.4834375 5.0315625 1.4834375 5.0315625 0 5 C0 3.35 0 1.7 0 0 Z " fill="#F1F8FA" transform="translate(184,287)"/>
<path d="M0 0 C2 1 2 1 2.8515625 3.06640625 C3.10679687 3.89011719 3.36203125 4.71382813 3.625 5.5625 C3.88539063 6.38878906 4.14578125 7.21507812 4.4140625 8.06640625 C4.60742188 8.70449219 4.80078125 9.34257812 5 10 C3.35 10.33 1.7 10.66 0 11 C0 7.37 0 3.74 0 0 Z " fill="#D2D7DF" transform="translate(321,290)"/>
<path d="M0 0 C0.99 0.33 1.98 0.66 3 1 C2.34 1 1.68 1 1 1 C1.03480469 1.77085937 1.06960937 2.54171875 1.10546875 3.3359375 C1.13253906 4.33882813 1.15960938 5.34171875 1.1875 6.375 C1.22230469 7.37273437 1.25710937 8.37046875 1.29296875 9.3984375 C1.19628906 10.25695312 1.09960938 11.11546875 1 12 C0.01 12.66 -0.98 13.32 -2 14 C-3.32 12.02 -4.64 10.04 -6 8 C-5.01 7.67 -4.02 7.34 -3 7 C-2.01 8.485 -2.01 8.485 -1 10 C-0.67 6.7 -0.34 3.4 0 0 Z " fill="#616770" transform="translate(144,284)"/>
<path d="M0 0 C0.66 0.33 1.32 0.66 2 1 C-0.64 5.62 -3.28 10.24 -6 15 C-7.25541557 11.23375329 -6.37061958 9.62811066 -5 6 C-4.34 6 -3.68 6 -3 6 C-3 5.01 -3 4.02 -3 3 C-1.5 1.3125 -1.5 1.3125 0 0 Z " fill="#E28452" transform="translate(271,216)"/>
<path d="M0 0 C2 2 2 2 2 5 C4.97 5 7.94 5 11 5 C11 5.66 11 6.32 11 7 C7.37 7 3.74 7 0 7 C0 4.69 0 2.38 0 0 Z " fill="#202B36" transform="translate(306,294)"/>
<path d="M0 0 C0.66 0 1.32 0 2 0 C2.48798077 6.34375 2.48798077 6.34375 0.1875 9.4375 C-2 11 -2 11 -5 11 C-4 8 -4 8 -1 6 C-0.26656572 2.93443402 -0.26656572 2.93443402 0 0 Z " fill="#283040" transform="translate(301,290)"/>
<path d="M0 0 C0.33 0 0.66 0 1 0 C1 5.28 1 10.56 1 16 C-0.65 16.33 -2.3 16.66 -4 17 C-3.67 16.34 -3.34 15.68 -3 15 C-2.34 15.33 -1.68 15.66 -1 16 C-1.66 14.02 -2.32 12.04 -3 10 C-2.34 10 -1.68 10 -1 10 C-0.67 6.7 -0.34 3.4 0 0 Z " fill="#D2D8DF" transform="translate(288,285)"/>
<path d="M0 0 C0.33 0 0.66 0 1 0 C1 1.65 1 3.3 1 5 C0.34 5 -0.32 5 -1 5 C-1 6.65 -1 8.3 -1 10 C-1.66 10 -2.32 10 -3 10 C-3.33 11.65 -3.66 13.3 -4 15 C-4.66 15 -5.32 15 -6 15 C-4.40109514 9.80355921 -2.25861997 4.93387858 0 0 Z " fill="#E2814E" transform="translate(260,183)"/>
<path d="M0 0 C2 3 2 3 3 6 C1.6875 7.5 1.6875 7.5 0 9 C-0.99 9 -1.98 9 -3 9 C-2.44271087 5.65626525 -1.64826111 2.96687001 0 0 Z " fill="#2D3B45" transform="translate(305,159)"/>
<path d="M0 0 C0.66 0 1.32 0 2 0 C2 1.32 2 2.64 2 4 C5.63 4 9.26 4 13 4 C13 4.33 13 4.66 13 5 C11.06403108 5.22211116 9.12610672 5.42722992 7.1875 5.625 C5.56908203 5.79902344 5.56908203 5.79902344 3.91796875 5.9765625 C1 6 1 6 -2 4 C-1.34 3.67 -0.68 3.34 0 3 C0 2.01 0 1.02 0 0 Z " fill="#CBD2DA" transform="translate(105,297)"/>
<path d="M0 0 C1.98 0 3.96 0 6 0 C6.66 1.32 7.32 2.64 8 4 C5.36 4 2.72 4 0 4 C0 2.68 0 1.36 0 0 Z " fill="#F8FCFE" transform="translate(309,294)"/>
<path d="M0 0 C2.31 0 4.62 0 7 0 C6 2 6 2 3 4 C3.99 4.33 4.98 4.66 6 5 C4.02 5 2.04 5 0 5 C0 3.35 0 1.7 0 0 Z " fill="#D2DCE3" transform="translate(308,287)"/>
<path d="M0 0 C0.33 0.66 0.66 1.32 1 2 C0.0625 4.125 0.0625 4.125 -1 6 C-1.66 6 -2.32 6 -3 6 C-3.33 7.65 -3.66 9.3 -4 11 C-4.99 11.33 -5.98 11.66 -7 12 C-5.45052978 7.60983438 -3.33033996 3.33033996 0 0 Z " fill="#FEE3CE" transform="translate(172,171)"/>
<path d="M0 0 C3.3 0.33 6.6 0.66 10 1 C9.20197185 4.1921126 8.25768711 6.98155093 7 10 C6 7 6 7 6 3 C4.02 2.34 2.04 1.68 0 1 C0 0.67 0 0.34 0 0 Z " fill="#FDE5D0" transform="translate(268,140)"/>
<path d="M0 0 C0.99 0 1.98 0 3 0 C4.5625 2.375 4.5625 2.375 6 5 C6.66 5.66 7.32 6.32 8 7 C6.68 7.33 5.36 7.66 4 8 C2.68 5.36 1.36 2.72 0 0 Z " fill="#354152" transform="translate(338,285)"/>
<path d="M0 0 C0.99 0 1.98 0 3 0 C3 0.99 3 1.98 3 3 C2.34 3 1.68 3 1 3 C0.67 4.98 0.34 6.96 0 9 C-0.99 9 -1.98 9 -3 9 C-2.01 6.03 -1.02 3.06 0 0 Z " fill="#3C414F" transform="translate(278,284)"/>
<path d="M0 0 C0.66 0 1.32 0 2 0 C1.57405412 1.44096586 1.13373367 2.87768712 0.6875 4.3125 C0.44386719 5.11300781 0.20023437 5.91351563 -0.05078125 6.73828125 C-1.04182023 9.09964573 -2.08074943 10.33879993 -4 12 C-3.67 9.69 -3.34 7.38 -3 5 C-2.34 5 -1.68 5 -1 5 C-0.67 3.35 -0.34 1.7 0 0 Z " fill="#E27D4B" transform="translate(284,188)"/>
<path d="M0 0 C0.33 0 0.66 0 1 0 C1.66 3.3 2.32 6.6 3 10 C2.34 10 1.68 10 1 10 C1 10.66 1 11.32 1 12 C-0.32 12 -1.64 12 -3 12 C-2.67 11.34 -2.34 10.68 -2 10 C-1.34 10.33 -0.68 10.66 0 11 C-0.66 9.02 -1.32 7.04 -2 5 C-1.34 5 -0.68 5 0 5 C0 3.35 0 1.7 0 0 Z " fill="#C6CCD2" transform="translate(255,290)"/>
<path d="M0 0 C0.66 0.33 1.32 0.66 2 1 C2.625 4.0625 2.625 4.0625 3 7 C1.35 7 -0.3 7 -2 7 C-1.125 2.25 -1.125 2.25 0 0 Z " fill="#D8DFE6" transform="translate(247,288)"/>
<path d="M0 0 C4.9723422 1.49170266 9.41845739 3.60457417 14 6 C12.328125 6.6796875 12.328125 6.6796875 10 7 C7.421875 5.8203125 7.421875 5.8203125 4.75 4.125 C3.85796875 3.57070313 2.9659375 3.01640625 2.046875 2.4453125 C1.37140625 1.96835938 0.6959375 1.49140625 0 1 C0 0.67 0 0.34 0 0 Z " fill="#E28754" transform="translate(166,253)"/>
<path d="M0 0 C3.375 4.5 3.375 4.5 4 8 C2.02 8.99 2.02 8.99 0 10 C0 6.7 0 3.4 0 0 Z " fill="#273248" transform="translate(300,226)"/>
<path d="M0 0 C0.66 0.33 1.32 0.66 2 1 C-0.475 5.455 -0.475 5.455 -3 10 C-3.33 10 -3.66 10 -4 10 C-4 8.02 -4 6.04 -4 4 C-2.68 3.34 -1.36 2.68 0 2 C0 1.34 0 0.68 0 0 Z " fill="#FEEEDE" transform="translate(249,203)"/>
<path d="M0 0 C0.33 0.66 0.66 1.32 1 2 C1.66 2 2.32 2 3 2 C2.67 2.99 2.34 3.98 2 5 C1.34 5 0.68 5 0 5 C0 6.32 0 7.64 0 9 C-0.99 9.33 -1.98 9.66 -3 10 C-2.01 6.7 -1.02 3.4 0 0 Z " fill="#FDE9D8" transform="translate(289,180)"/>
<path d="M0 0 C2.475 0.495 2.475 0.495 5 1 C4.1875 2.9375 4.1875 2.9375 3 5 C2.01 5.33 1.02 5.66 0 6 C0 4.02 0 2.04 0 0 Z " fill="#EDF3F8" transform="translate(184,295)"/>
<path d="M0 0 C0.99 0 1.98 0 3 0 C3.33 1.98 3.66 3.96 4 6 C2.02 6.66 0.04 7.32 -2 8 C-1.34 5.36 -0.68 2.72 0 0 Z " fill="#D1D7DE" transform="translate(212,291)"/>
<path d="M0 0 C3 3.625 3 3.625 3 7 C1.35 7 -0.3 7 -2 7 C-1.34 4.69 -0.68 2.38 0 0 Z " fill="#D9E1EC" transform="translate(279,288)"/>
<path d="M0 0 C0.66 0 1.32 0 2 0 C2.66 1.98 3.32 3.96 4 6 C2.02 6 0.04 6 -2 6 C-1.34 4.02 -0.68 2.04 0 0 Z " fill="#D6E0E7" transform="translate(97,289)"/>
<path d="M0 0 C3 3.625 3 3.625 3 7 C-0.73487777 6.5020163 -2.81237635 6.12508244 -6 4 C-4.02 4 -2.04 4 0 4 C0 2.68 0 1.36 0 0 Z " fill="#E0855E" transform="translate(311,144)"/>
<path d="M0 0 C1.65 0.33 3.3 0.66 5 1 C5 2.98 5 4.96 5 7 C3.68 5.68 2.36 4.36 1 3 C0.01 3.495 0.01 3.495 -1 4 C-0.67 2.68 -0.34 1.36 0 0 Z " fill="#FDEEDD" transform="translate(295,113)"/>
<path d="M0 0 C2.5654594 2.5654594 2.54046087 4.47686668 3 8 C1.35 8 -0.3 8 -2 8 C-1.34 5.36 -0.68 2.72 0 0 Z " fill="#D8E4E7" transform="translate(223,289)"/>
<path d="M0 0 C0.66 0 1.32 0 2 0 C1.34 2.97 0.68 5.94 0 9 C-0.66 9 -1.32 9 -2 9 C-2.25 3.375 -2.25 3.375 0 0 Z " fill="#26313C" transform="translate(165,286)"/>
<path d="M0 0 C0.99 0 1.98 0 3 0 C1.7508258 3.45925163 0.32472205 6.14693203 -2 9 C-1.125 2.25 -1.125 2.25 0 0 Z " fill="#474E5B" transform="translate(349,284)"/>
<path d="M0 0 C0.66 0 1.32 0 2 0 C1.34 2.97 0.68 5.94 0 9 C-0.66 9 -1.32 9 -2 9 C-1.125 1.125 -1.125 1.125 0 0 Z " fill="#383D4A" transform="translate(232,284)"/>
<path d="M0 0 C-0.56371414 3.26954202 -1.49962266 4.82575883 -4 7 C-4.66 6.01 -5.32 5.02 -6 4 C-2.25 0 -2.25 0 0 0 Z " fill="#ECF3F5" transform="translate(270,232)"/>
<path d="M0 0 C0 3 0 3 -2.25 5.75 C-3.1575 6.4925 -4.065 7.235 -5 8 C-7.171875 7.640625 -7.171875 7.640625 -9 7 C-8.43410156 6.57847656 -7.86820313 6.15695313 -7.28515625 5.72265625 C-6.55167969 5.17480469 -5.81820312 4.62695312 -5.0625 4.0625 C-4.33160156 3.51722656 -3.60070312 2.97195312 -2.84765625 2.41015625 C-1.0865547 1.13092062 -1.0865547 1.13092062 0 0 Z " fill="#E38A5A" transform="translate(233,227)"/>
<path d="M0 0 C0.33 0.66 0.66 1.32 1 2 C0.67 2.99 0.34 3.98 0 5 C0.66 5 1.32 5 2 5 C2 6.65 2 8.3 2 10 C-1 8 -1 8 -1.8125 5.5625 C-2 3 -2 3 0 0 Z " fill="#FCF4E9" transform="translate(269,223)"/>
<path d="M0 0 C1.65 0 3.3 0 5 0 C5.25 3.3125 5.25 3.3125 5 7 C3 8.9375 3 8.9375 1 10 C1.99 7.03 2.98 4.06 4 1 C2.68 0.67 1.36 0.34 0 0 Z " fill="#E48454" transform="translate(274,140)"/>
<path d="M0 0 C0.66 0.33 1.32 0.66 2 1 C0.37660195 2.70884005 -1.29319053 4.37446717 -3 6 C-3.66 6 -4.32 6 -5 6 C-5 6.99 -5 7.98 -5 9 C-5.99 9 -6.98 9 -8 9 C-6.4169423 4.7257442 -3.49431596 2.73468206 0 0 Z " fill="#DB8658" transform="translate(276,131)"/>
<path d="M0 0 C0.33 0 0.66 0 1 0 C1 3.63 1 7.26 1 11 C0.34 9.68 -0.32 8.36 -1 7 C-1.99 7.495 -1.99 7.495 -3 8 C-1.125 2.25 -1.125 2.25 0 0 Z " fill="#C4CCD6" transform="translate(333,290)"/>
<path d="M0 0 C0.66 0.99 1.32 1.98 2 3 C0.68 5.31 -0.64 7.62 -2 10 C-2.6875 8.375 -2.6875 8.375 -3 6 C-1.5625 2.75 -1.5625 2.75 0 0 Z " fill="#374046" transform="translate(332,287)"/>
<path d="M0 0 C0.66 0.33 1.32 0.66 2 1 C1.67 2.65 1.34 4.3 1 6 C0.01 6 -0.98 6 -2 6 C-2 4.35 -2 2.7 -2 1 C-1.34 0.67 -0.68 0.34 0 0 Z " fill="#F1F5F5" transform="translate(328,289)"/>
<path d="M0 0 C-3.31371 2.20914 -4.3446021 2.22481553 -8.1875 2.125 C-9.08855469 2.10695313 -9.98960937 2.08890625 -10.91796875 2.0703125 C-11.60503906 2.04710937 -12.29210937 2.02390625 -13 2 C-13 1.67 -13 1.34 -13 1 C-11.58622218 0.63447197 -10.16879424 0.28304505 -8.75 -0.0625 C-7.96109375 -0.25972656 -7.1721875 -0.45695312 -6.359375 -0.66015625 C-3.89605178 -1.01497267 -2.34395868 -0.76877544 0 0 Z " fill="#FBDEC9" transform="translate(224,263)"/>
<path d="M0 0 C0.33 0 0.66 0 1 0 C1.99 3.63 2.98 7.26 4 11 C2.68 10.67 1.36 10.34 0 10 C0 6.7 0 3.4 0 0 Z " fill="#E48A59" transform="translate(163,208)"/>
<path d="M0 0 C0.33 0 0.66 0 1 0 C1.6875 2.8125 1.6875 2.8125 2 6 C0.6875 7.875 0.6875 7.875 -1 9 C-1.66 9 -2.32 9 -3 9 C-2.01 6.03 -1.02 3.06 0 0 Z " fill="#E38650" transform="translate(274,150)"/>
<path d="M0 0 C0.99 0.33 1.98 0.66 3 1 C3.33 2.98 3.66 4.96 4 7 C3.01 6.67 2.02 6.34 1 6 C0.67 4.02 0.34 2.04 0 0 Z " fill="#2C3847" transform="translate(319,284)"/>
<path d="M0 0 C0.66 0.33 1.32 0.66 2 1 C1.34 2.65 0.68 4.3 0 6 C-0.99 5.67 -1.98 5.34 -3 5 C-1.125 1.125 -1.125 1.125 0 0 Z " fill="#E3EDF3" transform="translate(346,285)"/>
<path d="M0 0 C3.96 1.98 3.96 1.98 8 4 C4 5 4 5 2 5 C2 4.34 2 3.68 2 3 C1.34 3 0.68 3 0 3 C0 2.01 0 1.02 0 0 Z " fill="#FDEBDA" transform="translate(166,254)"/>
<path d="M0 0 C0.66 0.33 1.32 0.66 2 1 C2 1.66 2 2.32 2 3 C1.34 3 0.68 3 0 3 C-0.33 5.31 -0.66 7.62 -1 10 C-1.66 9.67 -2.32 9.34 -3 9 C-2.01 6.03 -1.02 3.06 0 0 Z " fill="#FCE6CF" transform="translate(295,166)"/>
<path d="M0 0 C0.66 0 1.32 0 2 0 C2 1.98 2 3.96 2 6 C0.68 6.33 -0.64 6.66 -2 7 C-1.34 4.69 -0.68 2.38 0 0 Z " fill="#262D40" transform="translate(210,291)"/>
<path d="M0 0 C0 0.99 0 1.98 0 3 C-4.455 2.01 -4.455 2.01 -9 1 C-9 0.67 -9 0.34 -9 0 C-5.62182575 -0.84454356 -3.32534757 -1.10844919 0 0 Z " fill="#3B424F" transform="translate(193,286)"/>
<path d="M0 0 C0.66 0 1.32 0 2 0 C2 0.66 2 1.32 2 2 C1.34 2 0.68 2 0 2 C-0.33 2.99 -0.66 3.98 -1 5 C-2.65 5 -4.3 5 -6 5 C-5.195625 4.360625 -4.39125 3.72125 -3.5625 3.0625 C-1.7249496 1.59396498 -1.7249496 1.59396498 0 0 Z " fill="#FDE9D6" transform="translate(244,251)"/>
<path d="M0 0 C4.41889613 1.35021826 6.34345343 3.26115668 9 7 C5.18315774 5.44499019 2.80804268 2.96404505 0 0 Z " fill="#DA8251" transform="translate(157,246)"/>
<path d="M0 0 C0.66 0.33 1.32 0.66 2 1 C2 3.64 2 6.28 2 9 C0.4375 7.3125 0.4375 7.3125 -1 5 C-0.6875 2.25 -0.6875 2.25 0 0 Z " fill="#343D48" transform="translate(293,188)"/>
</svg>
